<svg width="23" height="32" viewBox="0 0 23 32" fill="none" xmlns="http://www.w3.org/2000/svg">
<path d="M19.1933 17.0472V14.2188H17.5243V17.5C17.5244 17.7901 17.6123 18.0682 17.7688 18.2733L20.0278 21.2341V22.9688H1.66898V21.2341L3.92795 18.2733C4.08446 18.0682 4.17241 17.7901 4.17245 17.5V13.125C4.17013 11.5881 4.47729 10.0775 5.06293 8.74597C5.64856 7.41442 6.49192 6.30901 7.50783 5.54138C8.52373 4.77376 9.6762 4.37111 10.8488 4.3741C12.0215 4.3771 13.1727 4.78563 14.1863 5.55844V3.11391C13.392 2.65291 12.5471 2.35909 11.6829 2.24328V0H10.0139V2.24219C7.95651 2.51664 6.04986 3.78122 4.66261 5.79139C3.27536 7.80155 2.50606 10.4145 2.50347 13.125V17.0472L0.244506 20.008C0.0879976 20.213 4.72634e-05 20.4912 0 20.7812V24.0625C0 24.3526 0.0879193 24.6308 0.244417 24.8359C0.400914 25.041 0.61317 25.1562 0.834491 25.1562H6.67593V26.25C6.67593 27.7004 7.11552 29.0914 7.89801 30.117C8.6805 31.1426 9.74178 31.7188 10.8484 31.7188C11.955 31.7188 13.0163 31.1426 13.7988 30.117C14.5812 29.0914 15.0208 27.7004 15.0208 26.25V25.1562H20.8623C21.0836 25.1562 21.2958 25.041 21.4523 24.8359C21.6088 24.6308 21.6968 24.3526 21.6968 24.0625V20.7812C21.6967 20.4912 21.6088 20.213 21.4523 20.008L19.1933 17.0472ZM13.3519 26.25C13.3519 27.1202 13.0881 27.9548 12.6186 28.5702C12.1491 29.1855 11.5123 29.5312 10.8484 29.5312C10.1844 29.5312 9.54765 29.1855 9.07816 28.5702C8.60867 27.9548 8.34491 27.1202 8.34491 26.25V25.1562H13.3519V26.25Z" fill="#474B54"/>
<path d="M19.1933 12.0312C21.0368 12.0312 22.5312 10.0725 22.5312 7.65625C22.5312 5.24 21.0368 3.28125 19.1933 3.28125C17.3498 3.28125 15.8553 5.24 15.8553 7.65625C15.8553 10.0725 17.3498 12.0312 19.1933 12.0312Z" fill="#9B0000"/>
</svg>
