<svg width="20" height="20" viewBox="0 0 20 20" fill="none" xmlns="http://www.w3.org/2000/svg">
<circle cx="10" cy="10" r="10" fill="#B5BFD6"/>
<path d="M10 18C13.866 18 17 14.866 17 11C17 11 12.7729 12.19 10 12.19C7.22711 12.19 3 11 3 11C3 14.866 6.13401 18 10 18Z" fill="black"/>
<path d="M9.99999 16C13.0928 16 15.6 14.4777 15.6 12.6C15.6 12.6 12.2183 13.178 9.99999 13.178C7.78168 13.178 4.39999 12.6 4.39999 12.6C4.39999 14.4777 6.9072 16 9.99999 16Z" fill="#B5BFD6"/>
<ellipse cx="6.4" cy="6.78398" rx="1.4" ry="2.184" fill="black"/>
<ellipse cx="13.2" cy="6.78398" rx="1.4" ry="2.184" fill="black"/>
</svg>
