<svg width="21" height="31" viewBox="0 0 21 31" fill="none" xmlns="http://www.w3.org/2000/svg">
<rect x="5.14494" y="0.5" width="10.3403" height="18.88" rx="5.17013" stroke="#B5BFD6"/>
<path d="M0.774094 16.8736L0.547974 16.4277L0.547974 16.4277L0.774094 16.8736ZM1.44616 17.0934L1.89211 16.8673V16.8673L1.44616 17.0934ZM0.554266 17.5457L0.108318 17.7718L0.108318 17.7718L0.554266 17.5457ZM9.08654 23.9439L9.01426 24.4387L9.08654 23.9439ZM9.83532 24.023L10.3238 24.1295C10.3549 23.9872 10.3223 23.8385 10.2347 23.7221C10.1471 23.6058 10.0131 23.5335 9.86776 23.524L9.83532 24.023ZM10.8147 24.0342L10.7935 23.5347C10.648 23.5408 10.5125 23.6101 10.4223 23.7244C10.332 23.8386 10.2961 23.9865 10.3238 24.1294L10.8147 24.0342ZM20.0756 17.5795L20.5027 17.8394V17.8394L20.0756 17.5795ZM19.2213 17.0597L19.6484 17.3196V17.3196L19.2213 17.0597ZM9.23109 22.9544L9.30337 22.4597V22.4597L9.23109 22.9544ZM1.00021 17.3196L1.00021 17.3196L1.89211 16.8673C1.64234 16.3747 1.04055 16.1779 0.547974 16.4277L1.00021 17.3196ZM1.00021 17.3196V17.3196L0.547974 16.4277C0.0553932 16.6774 -0.141447 17.2792 0.108318 17.7718L1.00021 17.3196ZM9.15881 23.4492C5.66236 22.9384 2.55428 20.3845 1.00021 17.3196L0.108318 17.7718C1.78591 21.0803 5.14805 23.8739 9.01426 24.4387L9.15881 23.4492ZM9.86776 23.524C9.63048 23.5086 9.39406 23.4835 9.15881 23.4492L9.01426 24.4387C9.27551 24.4768 9.53851 24.5047 9.80288 24.5219L9.86776 23.524ZM10.3238 24.13V24.1295L9.34681 23.9164C9.3317 23.9857 9.32384 24.0572 9.32384 24.13H10.3238ZM10.3238 29.5785V24.13H9.32384V29.5785H10.3238ZM10.3238 29.5785H9.32384C9.32384 30.1308 9.77156 30.5785 10.3238 30.5785V29.5785ZM10.3238 29.5785V30.5785C10.8761 30.5785 11.3238 30.1308 11.3238 29.5785H10.3238ZM10.3238 24.13V29.5785H11.3238V24.13H10.3238ZM10.3238 24.1294L10.3238 24.13H11.3238C11.3238 24.0651 11.3176 24.0012 11.3055 23.939L10.3238 24.1294ZM19.6484 17.3196C17.0105 21.655 13.8154 23.4065 10.7935 23.5347L10.8359 24.5338C14.2649 24.3884 17.7332 22.391 20.5027 17.8394L19.6484 17.3196ZM19.6484 17.3196V17.3196L20.5027 17.8394C20.7898 17.3676 20.6401 16.7524 20.1682 16.4653L19.6484 17.3196ZM19.6484 17.3196V17.3196L20.1682 16.4653C19.6964 16.1782 19.0812 16.328 18.7942 16.7998L19.6484 17.3196ZM9.15881 23.4492C12.6551 23.9599 16.5402 22.4278 19.6484 17.3196L18.7942 16.7998C15.8516 21.6358 12.3268 22.9013 9.30337 22.4597L9.15881 23.4492ZM1.00021 17.3196C2.55428 20.3845 5.66237 22.9384 9.15881 23.4492L9.30337 22.4597C6.17631 22.0028 3.32246 19.6882 1.89211 16.8673L1.00021 17.3196Z" fill="#B5BFD6"/>
</svg>
