<svg width="42" height="42" viewBox="0 0 42 42" fill="none" xmlns="http://www.w3.org/2000/svg">
<path d="M28.5521 13.8435C29.0299 13.8435 29.4173 13.4561 29.4173 12.9782C29.4173 12.5004 29.0299 12.113 28.5521 12.113C28.0742 12.113 27.6869 12.5004 27.6869 12.9782C27.6869 13.4561 28.0742 13.8435 28.5521 13.8435Z" fill="black"/>
<path d="M4.47485 30.1337C3.82577 30.7826 3.46101 31.6628 3.46082 32.5806V36.3391C3.46082 36.798 3.64313 37.2381 3.96765 37.5627C4.29217 37.8872 4.73231 38.0695 5.19125 38.0695H10.3825C10.8415 38.0695 11.2816 37.8872 11.6061 37.5627C11.9307 37.2381 12.113 36.798 12.113 36.3391V34.6086C12.113 34.1497 12.2953 33.7095 12.6198 33.385C12.9443 33.0605 13.3845 32.8782 13.8434 32.8782H15.5738C16.0328 32.8782 16.4729 32.6959 16.7974 32.3714C17.122 32.0469 17.3043 31.6067 17.3043 31.1478V29.4173C17.3043 28.9584 17.4866 28.5183 17.8111 28.1937C18.1356 27.8692 18.5758 27.6869 19.0347 27.6869H19.3323C20.2501 27.6867 21.1303 27.322 21.7792 26.6729L23.1877 25.2643C25.5927 26.1021 28.2109 26.0989 30.6138 25.2552C33.0168 24.4116 35.0623 22.7774 36.4158 20.62C37.7692 18.4627 38.3505 15.9099 38.0644 13.3792C37.7784 10.8486 36.642 8.48994 34.8412 6.68911C33.0404 4.88828 30.6817 3.7519 28.1511 3.46587C25.6204 3.17984 23.0676 3.76109 20.9103 5.11454C18.7529 6.46799 17.1187 8.51351 16.2751 10.9165C15.4314 13.3194 15.4282 15.9376 16.266 18.3426L4.47485 30.1337Z" stroke="#A1A1AA" stroke-width="3.46086" stroke-linecap="round" stroke-linejoin="round"/>
<path d="M28.5521 13.8435C29.0299 13.8435 29.4173 13.4561 29.4173 12.9782C29.4173 12.5004 29.0299 12.113 28.5521 12.113C28.0742 12.113 27.6869 12.5004 27.6869 12.9782C27.6869 13.4561 28.0742 13.8435 28.5521 13.8435Z" stroke="#A1A1AA" stroke-width="3.46086" stroke-linecap="round" stroke-linejoin="round"/>
</svg>
