<svg width="40" height="40" viewBox="0 0 40 40" fill="none" xmlns="http://www.w3.org/2000/svg">
<path d="M21.6523 21.8162C22.9784 21.8162 24.2501 22.3908 25.1877 23.4137C26.1254 24.4365 26.6521 25.8237 26.6521 27.2702L26.6488 29.99C26.9921 36.6694 22.2757 40 13.5327 40C4.81978 39.9964 0 36.713 0 30.0882V27.2702C0 25.8237 0.52676 24.4365 1.4644 23.4137C2.40204 22.3908 3.67375 21.8162 4.99977 21.8162H21.6523ZM34.9851 21.8162C36.3111 21.8162 37.5828 22.3908 38.5204 23.4137C39.4581 24.4365 39.9849 25.8237 39.9849 27.2702V29.1864C40.2848 35.175 36.1184 38.1783 28.5054 38.1783C27.4721 38.1783 26.4988 38.1238 25.5922 38.0147C26.5588 37.0403 27.2821 35.8804 27.7421 34.5314L28.5054 34.5423C34.4518 34.5423 36.8283 32.8297 36.6517 29.2846V27.2702C36.6517 26.7881 36.4761 26.3257 36.1635 25.9847C35.851 25.6438 35.4271 25.4522 34.9851 25.4522H28.1087C27.7742 24.0438 27.0602 22.7772 26.0588 21.8162H34.9851ZM21.6523 25.4522H4.99977C4.55777 25.4522 4.13386 25.6438 3.82132 25.9847C3.50877 26.3257 3.33318 26.7881 3.33318 27.2702V30.0882C3.33318 34.2514 6.42637 36.3603 13.5327 36.3603C20.6124 36.3603 23.5323 34.2987 23.3189 30.0882V27.2702C23.3189 26.7881 23.1434 26.3257 22.8308 25.9847C22.5183 25.6438 22.0944 25.4522 21.6523 25.4522ZM13.3327 0C15.5428 0 17.6623 0.957702 19.225 2.66242C20.7877 4.36714 21.6657 6.67924 21.6657 9.09008C21.6657 11.5009 20.7877 13.813 19.225 15.5177C17.6623 17.2225 15.5428 18.1802 13.3327 18.1802C11.1227 18.1802 9.00317 17.2225 7.44044 15.5177C5.87771 13.813 4.99977 11.5009 4.99977 9.09008C4.99977 6.67924 5.87771 4.36714 7.44044 2.66242C9.00317 0.957702 11.1227 0 13.3327 0ZM29.9986 3.63603C31.7667 3.63603 33.4623 4.40219 34.7125 5.76597C35.9627 7.12975 36.665 8.97943 36.665 10.9081C36.665 12.8368 35.9627 14.6864 34.7125 16.0502C33.4623 17.414 31.7667 18.1802 29.9986 18.1802C28.2306 18.1802 26.535 17.414 25.2848 16.0502C24.0346 14.6864 23.3323 12.8368 23.3323 10.9081C23.3323 8.97943 24.0346 7.12975 25.2848 5.76597C26.535 4.40219 28.2306 3.63603 29.9986 3.63603ZM13.3327 3.63603C12.0067 3.63603 10.735 4.21065 9.79735 5.23349C8.85971 6.25632 8.33295 7.64358 8.33295 9.09008C8.33295 10.5366 8.85971 11.9238 9.79735 12.9467C10.735 13.9695 12.0067 14.5441 13.3327 14.5441C14.6587 14.5441 15.9305 13.9695 16.8681 12.9467C17.8057 11.9238 18.3325 10.5366 18.3325 9.09008C18.3325 7.64358 17.8057 6.25632 16.8681 5.23349C15.9305 4.21065 14.6587 3.63603 13.3327 3.63603ZM29.9986 7.27207C29.1146 7.27207 28.2668 7.65515 27.6417 8.33704C27.0166 9.01892 26.6655 9.94376 26.6655 10.9081C26.6655 11.8724 27.0166 12.7973 27.6417 13.4792C28.2668 14.1611 29.1146 14.5441 29.9986 14.5441C30.8827 14.5441 31.7305 14.1611 32.3556 13.4792C32.9806 12.7973 33.3318 11.8724 33.3318 10.9081C33.3318 9.94376 32.9806 9.01892 32.3556 8.33704C31.7305 7.65515 30.8827 7.27207 29.9986 7.27207Z" fill="#B5BFD6"/>
</svg>
